<svg width="318" height="82" viewBox="0 0 318 82" fill="none" xmlns="http://www.w3.org/2000/svg">
<path d="M77.0408 64.8312C78.4753 64.8281 79.771 64.2324 80.6943 63.2758C81.579 62.3598 82.1225 61.1131 82.1225 59.7391V22.9455C82.1225 21.5392 81.5529 20.2664 80.6317 19.3452C79.7105 18.424 78.4378 17.8534 77.0314 17.8534C75.8599 17.8534 73.3613 17.8534 71.0317 17.8534C69.6243 17.8534 68.3515 17.2827 67.4293 16.3605C66.5081 15.4382 65.9385 14.1644 65.9395 12.7571L65.9448 5.08288C65.9427 3.67865 65.371 2.40796 64.4498 1.48781C63.5286 0.56766 62.2568 -0.000915527 60.8526 -0.000915527H8.86713V17.8503H56.4344C57.8376 17.8503 58.2486 19.7646 56.9696 20.3405L14.8366 38.1541C6.94336 41.4936 0.750587 49.2711 0.750587 59.1945C0.750587 72.2092 11.2635 81.9991 23.5311 81.9991H60.8537C62.3831 81.9991 63.755 81.3251 64.6887 80.2579C65.4711 79.3628 65.9458 78.1902 65.9458 76.908V69.9213C65.9458 68.515 66.5165 67.2422 67.4376 66.321C68.3599 65.3988 69.6337 64.8292 71.0411 64.8292H77.0429L77.0408 64.8312ZM27.0313 64.0624C23.4091 64.0624 21.2057 61.1465 21.2057 58.3391C21.2057 55.6892 22.8624 53.803 24.6203 53.0404L60.4989 37.4854C61.2783 37.1359 62.1108 37.2601 62.7336 37.6899C63.3199 38.0936 63.7226 38.7686 63.7226 39.573L63.7247 58.9702C63.7247 60.3765 63.1551 61.6493 62.2339 62.5716C61.3127 63.4927 60.0389 64.0634 58.6326 64.0634H27.0313V64.0624ZM147.938 19.3452C144.807 17.8649 141.021 17.1241 136.576 17.1241C132.881 17.1241 129.487 17.7741 126.39 19.074C123.293 20.3728 120.804 22.185 118.924 24.5115C117.047 26.8379 115.921 29.6328 115.546 32.894H126.626C127.061 30.5989 128.19 28.8921 130.004 27.7727C131.819 26.6553 134.01 26.0972 136.576 26.0972C138.831 26.0972 140.677 26.4895 142.117 27.275C143.555 28.0627 144.618 29.2562 145.309 30.8555C145.998 32.4569 146.341 34.4673 146.341 36.8834H134.419C130.035 36.8834 126.343 37.4729 123.34 38.6507C120.334 39.8286 118.066 41.4769 116.531 43.5905C114.997 45.7063 114.232 48.2142 114.232 51.1145C114.232 53.5933 114.856 55.8884 116.11 58.0031C117.362 60.1189 119.269 61.81 121.837 63.0775C124.404 64.3472 127.627 64.9825 131.508 64.9825C133.511 64.9825 135.31 64.7697 136.907 64.3482C138.502 63.9247 139.926 63.3363 141.178 62.5809C142.43 61.8277 143.54 60.9368 144.511 59.9071C145.481 58.8795 146.28 57.7621 146.905 56.553V63.8954H157.609V35.6169C157.609 31.7496 156.779 28.4404 155.122 25.6903C153.463 22.9424 151.068 20.8267 147.94 19.3463L147.938 19.3452ZM146.062 44.1351C145.873 45.7657 145.498 47.3066 144.933 48.7557C144.369 50.2069 143.571 51.5214 142.54 52.6992C141.508 53.8771 140.287 54.7836 138.879 55.4179C137.47 56.0522 135.858 56.3694 134.042 56.3694C132.414 56.3694 131.005 56.1294 129.818 55.6443C128.627 55.1623 127.718 54.4665 127.094 53.5599C126.468 52.6533 126.154 51.5652 126.154 50.2955C126.154 49.0259 126.468 47.9242 127.094 46.9863C127.718 46.0505 128.752 45.3109 130.192 44.7652C131.632 44.2227 133.447 43.9505 135.638 43.9505H146.061V44.132L146.062 44.1351ZM202.068 24.5563C200.502 22.2006 198.389 20.3728 195.728 19.074C193.068 17.7751 189.954 17.1241 186.388 17.1241C182.004 17.1241 178.076 18.1653 174.604 20.2508C171.129 22.3352 168.422 25.177 166.481 28.77C164.541 32.3661 163.572 36.4599 163.572 41.0512C163.572 45.6426 164.525 49.7531 166.434 53.3773C168.344 57.0026 171.02 59.8445 174.463 61.8966C177.905 63.9518 181.816 64.9783 186.2 64.9783C188.889 64.9783 191.239 64.6153 193.242 63.8902C195.245 63.1662 196.965 62.2127 198.406 61.0348C199.846 59.857 201.066 58.603 202.069 57.2728V63.8902H213.334V0.00012773H202.069V24.5563H202.068ZM200.471 48.5742C199.345 50.7504 197.748 52.4593 195.681 53.6955C193.617 54.936 191.238 55.5557 188.545 55.5557C185.853 55.5557 183.664 54.937 181.598 53.6955C179.532 52.4593 177.92 50.7504 176.762 48.5742C175.605 46.4 175.026 43.8931 175.026 41.0523C175.026 38.2115 175.605 35.7046 176.762 33.5283C177.92 31.3521 179.531 29.6631 181.598 28.4518C183.664 27.2448 185.979 26.6397 188.545 26.6397C191.237 26.6397 193.617 27.2448 195.681 28.4518C197.747 29.6631 199.344 31.3521 200.471 33.5283C201.597 35.7046 202.16 38.2125 202.16 41.0523C202.16 43.892 201.596 46.4 200.471 48.5742ZM255.543 20.1141C252.101 18.1194 248.064 17.1241 243.432 17.1241C238.8 17.1241 234.496 18.1518 230.896 20.2059C227.296 22.2611 224.512 25.0988 222.54 28.7252C220.568 32.3505 219.583 36.5809 219.583 41.4133C219.583 46.2456 220.584 50.1777 222.587 53.7425C224.59 57.3073 227.376 60.0729 230.943 62.0353C234.512 63.9987 238.641 64.9804 243.337 64.9804C247.029 64.9804 250.347 64.3305 253.291 63.0306C256.232 61.7317 258.703 59.9488 260.709 57.6828C262.71 55.4169 264.15 52.864 265.027 50.0243H253.571C252.76 51.8364 251.49 53.2887 249.769 54.3736C248.048 55.4618 245.872 56.0063 243.243 56.0063C240.866 56.0063 238.721 55.4774 236.811 54.4206C234.902 53.3638 233.399 51.8072 232.305 49.752C231.377 48.0108 230.847 45.9848 230.705 43.6792H266.153C266.278 42.8936 266.341 42.1383 266.341 41.4112V39.4196C266.341 35.2497 265.401 31.4877 263.524 28.1336C261.646 24.7796 258.986 22.1057 255.543 20.112V20.1141ZM230.881 36.7009C231.139 34.9576 231.626 33.4303 232.353 32.1251C233.479 30.1023 235.013 28.576 236.953 27.5473C238.894 26.5218 241.023 26.0085 243.337 26.0085C246.592 26.0085 249.315 26.96 251.507 28.8618C253.697 30.7668 254.854 33.3802 254.979 36.7019H230.879L230.881 36.7009ZM317.136 18.2123V63.8934H306.339V56.2797C304.9 58.94 302.817 61.0536 300.096 62.6237C297.373 64.1938 294.195 64.9815 290.565 64.9815C286.747 64.9815 283.476 64.2408 280.753 62.7604C278.033 61.28 275.95 59.0433 274.511 56.0533C273.071 53.0633 272.35 49.3618 272.35 44.9489V18.2123H283.618V43.8618C283.618 47.7917 284.478 50.7661 286.2 52.79C287.921 54.816 290.534 55.8269 294.04 55.8269C296.293 55.8269 298.311 55.3136 300.098 54.286C301.88 53.2584 303.29 51.7645 304.322 49.8C305.356 47.8376 305.872 45.435 305.872 42.5942V18.2123H317.137H317.136Z" fill="#1E2028"/>
</svg>
